<svg width="14" height="14" viewBox="0 0 14 14" fill="none" xmlns="http://www.w3.org/2000/svg">
<g clip-path="url(#clip0)">
<path d="M10.4993 0.0029129L8.68388 0C6.64426 0 5.32617 1.35232 5.32617 3.44538V5.03394H3.5008C3.34306 5.03394 3.21533 5.16181 3.21533 5.31955V7.62118C3.21533 7.77891 3.34321 7.90664 3.5008 7.90664H5.32617V13.7144C5.32617 13.8721 5.4539 13.9999 5.61163 13.9999H7.99323C8.15096 13.9999 8.27869 13.872 8.27869 13.7144V7.90664H10.413C10.5707 7.90664 10.6984 7.77891 10.6984 7.62118L10.6993 5.31955C10.6993 5.24381 10.6692 5.17128 10.6157 5.11768C10.5623 5.06408 10.4894 5.03394 10.4137 5.03394H8.27869V3.6873C8.27869 3.04005 8.43293 2.71148 9.27607 2.71148L10.4991 2.71104C10.6566 2.71104 10.7844 2.58316 10.7844 2.42558V0.288378C10.7844 0.130935 10.6568 0.00320419 10.4993 0.0029129Z" fill="#37A000"/>
</g>
<defs>
<clipPath id="clip0">
<rect width="14" height="13.9999" fill="white"/>
</clipPath>
</defs>
</svg>
