<svg width="14" height="14" viewBox="0 0 14 14" fill="none" xmlns="http://www.w3.org/2000/svg">
<path d="M3.25899 4.48828H0.448463C0.323727 4.48828 0.222656 4.5894 0.222656 4.71409V13.7431C0.222656 13.8678 0.323727 13.9689 0.448463 13.9689H3.25899C3.38372 13.9689 3.48479 13.8678 3.48479 13.7431V4.71409C3.48479 4.5894 3.38372 4.48828 3.25899 4.48828Z" fill="#37A000"/>
<path d="M1.85459 0C0.831961 0 0 0.831058 0 1.85256C0 2.87452 0.831961 3.70589 1.85459 3.70589C2.87641 3.70589 3.7077 2.87447 3.7077 1.85256C3.70774 0.831058 2.87641 0 1.85459 0Z" fill="#37A000"/>
<path d="M10.4075 4.26416C9.27867 4.26416 8.44422 4.74942 7.9381 5.30079V4.71437C7.9381 4.58968 7.83703 4.48857 7.7123 4.48857H5.02073C4.89599 4.48857 4.79492 4.58968 4.79492 4.71437V13.7434C4.79492 13.8681 4.89599 13.9692 5.02073 13.9692H7.82511C7.94984 13.9692 8.05092 13.8681 8.05092 13.7434V9.27611C8.05092 7.77075 8.45981 7.18429 9.50917 7.18429C10.652 7.18429 10.7428 8.12446 10.7428 9.35357V13.7434C10.7428 13.8682 10.8439 13.9692 10.9687 13.9692H13.7741C13.8988 13.9692 13.9999 13.8682 13.9999 13.7434V8.79086C13.9999 6.55244 13.5731 4.26416 10.4075 4.26416Z" fill="#37A000"/>
</svg>
