<svg width="67" height="66" viewBox="0 0 67 66" fill="none" xmlns="http://www.w3.org/2000/svg">
<rect width="60.1282" height="66" rx="5" fill="#37A000"/>
<g clip-path="url(#clip0)">
<path d="M22.9468 5.63477H7.82276C6.34874 5.63477 5.15381 6.75444 5.15381 8.13563V19.8063C5.15381 21.1875 6.34874 22.3072 7.82276 22.3072H8.28894L7.83079 25.5317C7.76506 25.9879 8.1065 26.4077 8.59342 26.4693C8.86939 26.5042 9.14681 26.4161 9.34318 26.231L12.271 23.4859V14.8046C12.2739 12.5038 14.2638 10.6392 16.7192 10.6365H25.6158V8.13563C25.6158 6.75444 24.4208 5.63477 22.9468 5.63477Z" fill="white"/>
<path d="M27.3951 12.3035H16.7192C15.2452 12.3035 14.0503 13.4231 14.0503 14.8043V23.1406C14.0503 24.5218 15.2452 25.6415 16.7192 25.6415H19.438L25.1576 28.8567C25.5792 29.0931 26.1255 28.9646 26.3779 28.5695C26.4862 28.3999 26.5267 28.1998 26.4921 28.0048L26.0731 25.6415H27.3951C28.8691 25.6415 30.0641 24.5218 30.0641 23.1406V14.8043C30.064 13.4231 28.8691 12.3035 27.3951 12.3035Z" fill="white"/>
</g>
<g clip-path="url(#clip1)">
<path d="M51.109 6.43896C42.3467 6.43896 35.218 13.1187 35.218 21.3292C35.218 29.5397 42.3467 36.2195 51.109 36.2195C59.8714 36.2195 67.0001 29.5397 67.0001 21.3292C67.0001 13.1187 59.8714 6.43896 51.109 6.43896ZM59.3528 21.7392L47.6994 29.1843C47.6098 29.2414 47.5055 29.2707 47.4011 29.2707C47.3164 29.2707 47.2311 29.2518 47.1538 29.2131C46.98 29.1272 46.8714 28.9585 46.8714 28.7743V13.8841C46.8714 13.6999 46.98 13.5312 47.1538 13.4453C47.3275 13.359 47.5373 13.3709 47.6999 13.4741L59.3533 20.9192C59.4974 21.0115 59.5843 21.1649 59.5843 21.3292C59.5843 21.4935 59.4974 21.6469 59.3528 21.7392Z" fill="#E56353"/>
</g>
<g clip-path="url(#clip2)">
<path d="M45.0619 36.5771H15.0661C13.8613 36.5771 12.8845 37.4924 12.8845 38.6213V59.5737C12.8845 60.7025 13.8613 61.6177 15.0661 61.6177H45.0619C46.2667 61.6177 47.2435 60.7025 47.2435 59.5736V38.6213C47.2435 37.4924 46.2668 36.5771 45.0619 36.5771ZM45.0619 38.6213V53.4877L40.7626 49.8251C40.1165 49.2748 39.1227 49.2967 38.5054 49.8758L34.1542 53.9522L25.575 44.3499C24.9265 43.6242 23.7386 43.6171 23.0804 44.3341L15.0661 53.0615V38.6213H45.0619ZM35.7905 43.9871C35.7905 42.4346 37.1331 41.1764 38.79 41.1764C40.4469 41.1764 41.7896 42.4346 41.7896 43.9871C41.7896 45.5396 40.447 46.7978 38.79 46.7978C37.1332 46.7978 35.7905 45.5396 35.7905 43.9871Z" fill="white"/>
</g>
<defs>
<clipPath id="clip0">
<rect x="5.15381" y="5.63403" width="24.9103" height="23.3415" fill="white"/>
</clipPath>
<clipPath id="clip1">
<rect x="35.218" y="6.43896" width="31.7821" height="29.7805" fill="white"/>
</clipPath>
<clipPath id="clip2">
<rect x="12.8845" y="33" width="34.359" height="32.1951" fill="white"/>
</clipPath>
</defs>
</svg>
