<svg width="95" height="95" viewBox="0 0 95 95" fill="none" xmlns="http://www.w3.org/2000/svg">
<path d="M62.7949 25.1979H25.4009V92.802H76.0473V38.4501L62.7949 25.1979Z" fill="#37A000"/>
<path d="M62.7949 25.1979H25.4009V90.3437H76.0473V38.4501L62.7949 25.1979Z" fill="#37A000"/>
<path d="M62.7947 38.4501H76.0471L62.7947 25.1979V38.4501Z" fill="#37A000" fill-opacity="0.34"/>
<path d="M62.7947 38.4501L76.0471 47.0458V38.4501H62.7947Z" fill="#37A000"/>
<path d="M61.8394 37.2192H39.6038V39.2462H61.8394V37.2192Z" fill="#27A2DB"/>
<path d="M70.1092 46.0322H31.3389V48.0591H70.1092V46.0322Z" fill="white"/>
<path d="M70.1092 52.3575H31.3389V54.3845H70.1092V52.3575Z" fill="white"/>
<path d="M70.1092 58.6815H31.3389V60.7084H70.1092V58.6815Z" fill="white"/>
<path d="M70.1092 65.0067H31.3389V67.0336H70.1092V65.0067Z" fill="white"/>
<path d="M70.1092 71.3286H31.3389V73.3555H70.1092V71.3286Z" fill="white"/>
<path d="M44.4787 77.6588H31.3389V79.6857H44.4787V77.6588Z" fill="#E56353"/>
<path d="M86.2952 61.7758L83.6538 59.1344L59.9228 82.8654L62.5642 85.5068L86.2952 61.7758Z" fill="#748B9D" fill-opacity="0.95"/>
<path d="M83.6485 59.1437L81.0071 56.5023L57.2759 80.2335L59.9173 82.8749L83.6485 59.1437Z" fill="#748B9D"/>
<path d="M81.0105 56.4999L78.3691 53.8585L54.638 77.5897L57.2793 80.2311L81.0105 56.4999Z" fill="#748B9D" fill-opacity="0.95"/>
<path d="M87.2248 60.8446L79.3008 52.9207L78.3673 53.8541L86.2913 61.7781L87.2248 60.8446Z" fill="#E56353"/>
<path d="M92.2553 54.1573L90.4447 52.3467L84.5857 58.2056L87.2267 60.8469L92.255 55.8186C92.7141 55.3598 92.7141 54.6161 92.2553 54.1573Z" fill="#37A000" fill-opacity="0.9"/>
<path d="M84.5898 58.2055L90.4487 52.3466L87.8074 49.7052L81.9484 55.5641L84.5898 58.2055Z" fill="#37A000"/>
<path d="M87.8032 49.7054L85.9926 47.8947C85.5338 47.436 84.7901 47.436 84.3313 47.8947L79.303 52.923L81.944 55.5641L87.8032 49.7054Z" fill="#37A000" fill-opacity="0.9"/>
<path d="M54.6381 77.5883L52.5901 84.4896C53.3814 84.4747 54.1774 84.7645 54.7817 85.3685C55.3855 85.9723 55.6753 86.7684 55.6604 87.5599L62.5617 85.5118L54.6381 77.5883Z" fill="#FCD462"/>
<path d="M54.7816 85.3686C54.1776 84.7646 53.3813 84.4748 52.59 84.4897L51.6014 87.8211C51.4691 88.2662 51.8837 88.6808 52.3291 88.5488L55.6603 87.5602C55.6752 86.7684 55.3857 85.9726 54.7816 85.3686Z" fill="#64798A"/>
</svg>
