<svg width="58" height="73" viewBox="0 0 58 73" fill="none" xmlns="http://www.w3.org/2000/svg">
<rect width="57.1254" height="65.0652" rx="5" fill="#37A000"/>
<rect x="0.25" y="0.25" width="56.6254" height="20.1304" rx="4.75" fill="#37A000" stroke="white" stroke-width="0.5"/>
<rect x="3.26416" y="3.96741" width="13.8733" height="12.6957" rx="5" fill="white"/>
<rect x="3.26416" y="3.96741" width="13.8733" height="12.6957" rx="5" fill="white"/>
<rect x="19.5859" y="3.96741" width="34.2752" height="3.17391" rx="1.58696" fill="white"/>
<rect x="19.5859" y="8.72827" width="34.2752" height="3.17391" rx="1.58696" fill="#748B9D"/>
<rect x="19.5859" y="13.4891" width="34.2752" height="3.17391" rx="1.58696" fill="white"/>
<path d="M0.25 23.2609H56.8754V38.6413C56.8754 41.2647 54.7488 43.3913 52.1254 43.3913H5C2.37665 43.3913 0.25 41.2647 0.25 38.6413V23.2609Z" fill="#37A000" stroke="white" stroke-width="0.5"/>
<path d="M3.26416 26.9783H17.1375V34.6739C17.1375 37.4353 14.8989 39.6739 12.1375 39.6739H8.26416C5.50273 39.6739 3.26416 37.4353 3.26416 34.6739V26.9783Z" fill="white"/>
<path d="M19.5859 26.9783H53.8612C53.8612 28.7312 52.4402 30.1522 50.6873 30.1522H22.7598C21.0069 30.1522 19.5859 28.7312 19.5859 26.9783Z" fill="white"/>
<path d="M19.5859 31.7391H53.8612C53.8612 33.492 52.4402 34.913 50.6873 34.913H22.7598C21.0069 34.913 19.5859 33.492 19.5859 31.7391Z" fill="#748B9D"/>
<path d="M19.5859 36.5H53.8612C53.8612 38.2529 52.4402 39.6739 50.6873 39.6739H22.7598C21.0069 39.6739 19.5859 38.2529 19.5859 36.5Z" fill="white"/>
<rect x="0.25" y="46.2717" width="56.6254" height="20.1304" fill="#37A000" stroke="white" stroke-width="0.5"/>
<rect x="3.26416" y="49.9891" width="13.8733" height="12.6957" fill="white"/>
<rect x="19.5859" y="49.9891" width="34.2752" height="3.17391" fill="white"/>
<rect x="19.5859" y="54.75" width="34.2752" height="3.17391" fill="#748B9D"/>
<rect x="19.5859" y="59.5109" width="34.2752" height="3.17391" fill="white"/>
<path d="M45.0882 62.8752V59.9076C45.0882 58.8126 46.0022 57.9239 47.1284 57.9239C48.2546 57.9239 49.1686 58.8126 49.1686 59.9076V62.8752C50.156 62.2325 50.8007 61.1454 50.8007 59.9076C50.8007 57.9318 49.1604 56.3369 47.1284 56.3369C45.0964 56.3369 43.456 57.9318 43.456 59.9076C43.456 61.1454 44.1007 62.2325 45.0882 62.8752ZM53.1184 66.549L49.4134 64.7557C49.2747 64.7002 49.1278 64.6684 48.9727 64.6684H48.3525V59.9076C48.3525 59.249 47.8057 58.7173 47.1284 58.7173C46.4511 58.7173 45.9043 59.249 45.9043 59.9076V68.4295L43.1051 67.8582C43.0398 67.8503 42.9827 67.8344 42.9093 67.8344C42.6563 67.8344 42.4278 67.9376 42.2646 68.0963L41.6199 68.731L45.6513 72.6508C45.8716 72.8651 46.1817 73 46.5163 73H52.0575C52.6696 73 53.1429 72.5635 53.2327 71.9843L53.8447 67.8027C53.8529 67.7471 53.861 67.6916 53.861 67.644C53.861 67.152 53.5509 66.7235 53.1184 66.549Z" fill="#E56353"/>
</svg>
