<svg width="68" height="68" viewBox="0 0 68 68" fill="none" xmlns="http://www.w3.org/2000/svg">
<g clip-path="url(#clip0)">
<path d="M46.8537 10.7805H24.4634L15.7561 21.08V68H55.561V21.08L46.8537 10.7805ZM38.2969 22.3629C36.8398 23.7038 34.477 23.7041 33.0194 22.3636C31.5619 21.0231 31.5616 18.8493 33.0187 17.5084C34.4757 16.1674 36.8385 16.1672 38.2961 17.5077L38.2969 17.5084C39.7536 18.849 39.7536 21.0222 38.2969 22.3629Z" fill="#37A000"/>
<path d="M55.561 50.5854H15.7561V68.0001H55.561V50.5854Z" fill="#2C7B03"/>
<path d="M36.4036 29.995V27.6611H34.0986V29.995C32.0419 30.147 30.4977 31.9376 30.6497 33.9944C30.7537 35.4016 31.6421 36.6301 32.946 37.1696L36.6687 38.7255C37.4007 39.0373 37.7415 39.8836 37.4297 40.6156C37.205 41.1431 36.6889 41.4872 36.1155 41.4916H34.3867C33.5916 41.4903 32.9473 40.8461 32.946 40.051V39.1866H30.6409V40.051C30.6468 42.0024 32.1526 43.6211 34.0986 43.7679V46.1018H36.4036V43.7679C38.4604 43.6159 40.0045 41.8253 39.8525 39.7686C39.7485 38.3613 38.8601 37.1329 37.5562 36.5933L33.8335 35.0374C33.1015 34.7256 32.7608 33.8794 33.0725 33.1474C33.2973 32.6198 33.8133 32.2758 34.3867 32.2713H36.1155C36.9106 32.2726 37.5549 32.9169 37.5562 33.712V34.5764H39.8613V33.712C39.8554 31.7606 38.3496 30.1418 36.4036 29.995Z" fill="#F2F2F2"/>
<path d="M45.6239 35.729H43.3188V38.0341H45.6239V35.729Z" fill="#F2F2F2"/>
<path d="M27.1833 35.729H24.8782V38.0341H27.1833V35.729Z" fill="#F2F2F2"/>
<path d="M23.0368 49.5593H20.7317V51.8644H23.0368V49.5593Z" fill="#E56353"/>
<path d="M27.6469 49.5593H25.3418V51.8644H27.6469V49.5593Z" fill="#E56353"/>
<path d="M50.6978 55.322H39.1724V57.6271H50.6978V55.322Z" fill="#E56353"/>
<path d="M32.2572 49.5593H29.9521V51.8644H32.2572V49.5593Z" fill="#E56353"/>
<path d="M36.8673 49.5593H34.5623V51.8644H36.8673V49.5593Z" fill="#E56353"/>
<path d="M41.4774 49.5593H39.1724V51.8644H41.4774V49.5593Z" fill="#E56353"/>
<path d="M46.0876 49.5593H43.7825V51.8644H46.0876V49.5593Z" fill="#E56353"/>
<path d="M50.6979 49.5593H48.3928V51.8644H50.6979V49.5593Z" fill="#E56353"/>
<path d="M36.8673 55.322H34.5623V57.6271H36.8673V55.322Z" fill="#E56353"/>
<path d="M50.6978 61.0847H39.1724V63.3898H50.6978V61.0847Z" fill="#E56353"/>
<path d="M36.8673 61.0847H34.5623V63.3898H36.8673V61.0847Z" fill="#E56353"/>
<path d="M29.3898 56.4746H20.1694V62.2373H29.3898V56.4746Z" fill="#748B9D"/>
<path d="M37.1344 19.5932H34.8293V4.0339C34.8293 1.80603 36.6354 0 38.8632 0C41.0911 0 42.8971 1.80603 42.8971 4.0339V10.3729H40.5921V4.0339C40.5921 3.07916 39.818 2.30508 38.8632 2.30508C37.9085 2.30508 37.1344 3.07916 37.1344 4.0339V19.5932Z" fill="#808080"/>
</g>
<defs>
<clipPath id="clip0">
<rect width="68" height="68" fill="white"/>
</clipPath>
</defs>
</svg>
