<svg width="30" height="28" viewBox="0 0 30 28" fill="none" xmlns="http://www.w3.org/2000/svg">
<path d="M28.5 5H22V3C21.9983 1.61987 20.8801 0.501709 19.5 0.5H10.5C9.11987 0.501709 8.00171 1.61987 8 3V5H1.5C0.671631 5 0 5.67163 0 6.5V17.6299C0.00317383 18.2642 0.402832 18.8284 1 19.0415V26C1 26.8284 1.67163 27.5 2.5 27.5H27.5C28.3284 27.5 29 26.8284 29 26V19.042C29.5972 18.8286 29.9971 18.2642 30 17.6299V6.5C30 5.67163 29.3284 5 28.5 5ZM9 3C9 2.17163 9.67163 1.5 10.5 1.5H19.5C20.3284 1.5 21 2.17163 21 3V5H20V3C20 2.72388 19.7761 2.5 19.5 2.5H10.5C10.2239 2.5 10 2.72388 10 3V5H9V3ZM19 5H11V3.5H19V5ZM28 26C28 26.2761 27.7761 26.5 27.5 26.5H2.5C2.22388 26.5 2 26.2761 2 26V19.2134L13 20.7305V22C13 22.8284 13.6716 23.5 14.5 23.5H15.5C16.3284 23.5 17 22.8284 17 22V20.7305L28 19.2134V26ZM16 22C16 22.2761 15.7761 22.5 15.5 22.5H14.5C14.2239 22.5 14 22.2761 14 22V19C14 18.7239 14.2239 18.5 14.5 18.5H15.5C15.7761 18.5 16 18.7239 16 19V22ZM29 17.6299C29.0002 17.8792 28.8169 18.0906 28.5701 18.1255L28.4314 18.1445L17 19.7209V19C17 18.1716 16.3284 17.5 15.5 17.5H14.5C13.6716 17.5 13 18.1716 13 19V19.7209L1.43042 18.1255C1.18359 18.0908 0.999756 17.8794 1 17.6299V6.5C1 6.22388 1.22388 6 1.5 6H28.5C28.7761 6 29 6.22388 29 6.5V17.6299Z" fill="#37A000"/>
</svg>
