<svg width="26" height="30" viewBox="0 0 26 30" fill="none" xmlns="http://www.w3.org/2000/svg">
<path d="M12.8912 16.1648C12.9223 16.1648 12.9534 16.1648 12.9906 16.1648C13.0031 16.1648 13.0155 16.1648 13.0279 16.1648C13.0466 16.1648 13.0714 16.1648 13.09 16.1648C14.9103 16.1338 16.3827 15.4939 17.4698 14.27C19.8616 11.5738 19.464 6.95175 19.4205 6.51066C19.2652 3.19942 17.6997 1.61524 16.4075 0.875958C15.4446 0.323048 14.3201 0.0248499 13.0652 0H13.0217C13.0155 0 13.0031 0 12.9969 0H12.9596C12.27 0 10.9157 0.111824 9.61728 0.851108C8.31266 1.59039 6.72227 3.17457 6.56695 6.51066C6.52347 6.95175 6.12587 11.5738 8.51767 14.27C9.59864 15.4939 11.071 16.1338 12.8912 16.1648ZM8.22568 6.66598C8.22568 6.64734 8.2319 6.6287 8.2319 6.61628C8.43691 2.16194 11.5991 1.68358 12.9534 1.68358H12.9782C12.9906 1.68358 13.0093 1.68358 13.0279 1.68358C14.7053 1.72085 17.5568 2.40422 17.7494 6.61628C17.7494 6.63491 17.7494 6.65355 17.7556 6.66598C17.7618 6.70946 18.1967 10.9339 16.2211 13.158C15.4384 14.0402 14.3947 14.475 13.0217 14.4875C13.0093 14.4875 13.0031 14.4875 12.9906 14.4875C12.9782 14.4875 12.972 14.4875 12.9596 14.4875C11.5928 14.475 10.5429 14.0402 9.76637 13.158C7.79702 10.9464 8.21947 6.70325 8.22568 6.66598Z" fill="#748B9D"/>
<path d="M25.7573 23.831C25.7573 23.8248 25.7573 23.8186 25.7573 23.8124C25.7573 23.7627 25.751 23.713 25.751 23.6571C25.7138 22.427 25.633 19.5506 22.9368 18.6312C22.9182 18.625 22.8933 18.6188 22.8747 18.6126C20.0729 17.8981 17.7432 16.2829 17.7183 16.2643C17.3394 15.9971 16.8175 16.0903 16.5504 16.4693C16.2832 16.8482 16.3764 17.3701 16.7554 17.6372C16.861 17.7118 19.3336 19.4326 22.4274 20.2278C23.8749 20.7434 24.0364 22.2903 24.0799 23.7068C24.0799 23.7627 24.0799 23.8124 24.0861 23.8621C24.0923 24.4212 24.055 25.2848 23.9556 25.7818C22.9492 26.3533 19.0043 28.3289 13.0031 28.3289C7.02667 28.3289 3.0569 26.3471 2.04427 25.7755C1.94487 25.2785 1.90139 24.415 1.91381 23.8559C1.91381 23.8062 1.92002 23.7565 1.92002 23.7006C1.96351 22.2841 2.12504 20.7372 3.57254 20.2216C6.66635 19.4264 9.13891 17.6993 9.24452 17.631C9.62348 17.3639 9.71667 16.842 9.44953 16.4631C9.1824 16.0841 8.66055 15.9909 8.28159 16.258C8.25674 16.2767 5.93949 17.8919 3.12524 18.6064C3.10039 18.6126 3.08175 18.6188 3.06312 18.625C0.366907 19.5506 0.286145 22.427 0.24887 23.6509C0.24887 23.7068 0.24887 23.7565 0.242658 23.8062C0.242658 23.8124 0.242658 23.8186 0.242658 23.8248C0.236445 24.1479 0.230233 25.8066 0.559494 26.6391C0.621618 26.8006 0.733443 26.9373 0.882542 27.0305C1.06892 27.1547 5.53568 30 13.0093 30C20.4829 30 24.9496 27.1485 25.136 27.0305C25.2789 26.9373 25.3969 26.8006 25.4591 26.6391C25.7697 25.8128 25.7635 24.1541 25.7573 23.831Z" fill="#748B9D"/>
</svg>
